<svg xmlns="http://www.w3.org/2000/svg" xmlns:xlink="http://www.w3.org/1999/xlink"  viewBox="0 0 768 767.999994"><defs><clipPath id="clip1"><path d="M 7 105.121094 L 761 105.121094 L 761 661 L 7 661 Z M 7 105.121094 "></path></clipPath></defs><g id="surface1"><g clip-path="url(#clip1)" clip-rule="nonzero"><path style=" stroke:none;fill-rule:nonzero;fill:rgb(100%,100%,100%);fill-opacity:1;" d="M 656.101562 165.78125 C 590.949219 113.371094 487.886719 104.503906 483.507812 104.128906 C 476.628906 103.546875 470.09375 107.449219 467.285156 113.746094 C 467.082031 114.15625 464.824219 119.328125 462.324219 127.371094 C 505.40625 134.628906 558.339844 149.28125 606.246094 179.03125 C 613.910156 183.789062 616.273438 193.886719 611.515625 201.589844 C 608.4375 206.585938 603.0625 209.324219 597.589844 209.324219 C 594.644531 209.324219 591.667969 208.539062 588.964844 206.859375 C 506.636719 155.785156 403.777344 153.21875 384 153.21875 C 364.222656 153.21875 261.328125 155.785156 179.066406 206.859375 C 171.371094 211.652344 161.308594 209.257812 156.519531 201.589844 C 151.726562 193.886719 154.125 183.820312 161.789062 179.03125 C 209.691406 149.316406 262.59375 134.628906 305.710938 127.371094 C 303.175781 119.292969 300.917969 114.15625 300.746094 113.746094 C 297.90625 107.449219 291.40625 103.476562 284.492188 104.160156 C 280.148438 104.503906 177.082031 113.371094 111.042969 166.535156 C 76.550781 198.40625 7.601562 384.90625 7.601562 546.144531 C 7.601562 548.988281 8.355469 551.792969 9.757812 554.257812 C 57.355469 637.890625 187.179688 659.800781 216.777344 660.757812 C 216.949219 660.757812 217.117188 660.757812 217.289062 660.757812 C 222.523438 660.757812 227.453125 658.257812 230.53125 654.015625 L 260.472656 612.867188 C 179.753906 591.984375 138.519531 556.550781 136.125 554.464844 C 129.347656 548.472656 128.699219 538.136719 134.6875 531.355469 C 140.675781 524.578125 150.976562 523.929688 157.75 529.886719 C 158.742188 530.773438 234.671875 595.234375 384 595.234375 C 533.601562 595.234375 609.53125 530.5 610.285156 529.851562 C 617.058594 523.960938 627.394531 524.578125 633.347656 531.390625 C 639.300781 538.167969 638.652344 548.472656 631.910156 554.429688 C 629.515625 556.550781 588.28125 591.949219 507.5625 612.832031 L 537.503906 653.980469 C 540.582031 658.226562 545.507812 660.722656 550.746094 660.722656 C 550.914062 660.722656 551.085938 660.722656 551.257812 660.722656 C 580.855469 659.800781 710.679688 637.890625 758.277344 554.222656 C 759.644531 551.757812 760.398438 548.988281 760.398438 546.144531 C 760.398438 384.90625 691.449219 198.40625 656.101562 165.78125 Z M 277.617188 480.65625 C 246 480.65625 220.335938 451.320312 220.335938 415.167969 C 220.335938 379.019531 245.964844 349.679688 277.617188 349.679688 C 309.269531 349.679688 334.898438 379.019531 334.898438 415.167969 C 334.898438 451.320312 309.269531 480.65625 277.617188 480.65625 Z M 490.382812 480.65625 C 458.765625 480.65625 433.101562 451.320312 433.101562 415.167969 C 433.101562 379.019531 458.730469 349.679688 490.382812 349.679688 C 522 349.679688 547.664062 379.019531 547.664062 415.167969 C 547.664062 451.320312 522 480.65625 490.382812 480.65625 Z M 490.382812 480.65625 "></path></g></g></svg>					
				